<?xml version="1.0" encoding="utf-8"?>
<?xml-stylesheet type="text/xsl" href="rss1.xsl"?>
<rss version="2.0" xmlns:atom="http://www.w3.org/2005/Atom" xmlns:content="http://purl.org/rss/1.0/modules/content/" xmlns:dc="http://purl.org/dc/elements/1.1/" xmlns:media="http://search.yahoo.com/mrss/">
<channel>
 <title>Getty</title>
 <link>http://www.gettyimg.com/</link>
 <atom:link href="http://www.gettyimg.com/" rel="self" type="application/rss+xml" />

 
                <item>
                <title><![CDATA[【Albums (lossless)】FLAC - JASTA - 2024 - ...and Jasta for All [24bit-48kHz]]]></title>
                <link><![CDATA[https://sharemania.us/threads/jasta-2024-and-jasta-for-all-24bit-48khz.244815/]]></link>
                <description><![CDATA[<article>
<blockquote class="messageText SelectQuoteContainer ugc baseHtml">
<div style="text-align: center"><img src="https://static.qobuz.com/images/covers/lb/2b/z8samvk1y2blb_600.jpg" class="bbCodeImage LbImage" alt="[​IMG]" data-url="https://static.qobuz.com/images/covers/lb/2b/z8samvk1y2blb_600.jpg" style=""> <br>
<br>
<b>Artist</b>: Jasta <br>
<b>Album</b>: ...and Jasta For All<br>
<b>Date</b>: 17 May 2024<br>
<b>Genre</b>: Metalcore<br>
<b>Quality</b>: 24bit-48kHz<br>
<b>Country</b>: USA<br>
<b>Size</b>: 487,2MB<br>
<br>
<b>Tracklist</b>:<br>
<br>
1-They See Us as Prey 05:06<br>
2-Armor Your Mind 03:38<br>
3-Create the Now 03:44<br>
4-R.M.P.C 02:56<br>
5-Suicidality 02:37<br>
6-Assimilation Agenda 04:31<br>
7-Ring of Truth 03:31<br>
8-Terminal Lucidity 02:56<br>
9-No Dream Is Free 03:06<br>
10-The Phoenix Way 03:57<br>
<br>
<b><span style="font-size: 22px"><span style="color: #b30000">Filedot</span></span></b>:<br>
<br>
<div class="bbCodeBlock bbCodeVfcHH HiddenContent">
<div class="attribution type">Hidden Content:</div>
<blockquote>You must either reply or click 'Like' to see the hidden information contained here.</blockquote>
</div></div>
<div class="messageTextEndMarker">&nbsp;</div>
</blockquote>
</article>]]></description>
                <author><![CDATA[XRB80]]></author>
                </item>

                
                <item>
                <title><![CDATA[【PRORES HD】YUNGBLUD - Memories ft. WILLOW (ProRes 4K)]]></title>
                <link><![CDATA[https://sharemania.us/threads/yungblud-memories-ft-willow-prores-4k.244816/]]></link>
                <description><![CDATA[<article>
<blockquote class="messageText SelectQuoteContainer ugc baseHtml">
<div style="text-align: center"><img src="https://i.ibb.co/gD0Pv51/YUNGBLUD-Memories-ft-WILLOW-VTM.gif" class="bbCodeImage LbImage" alt="[​IMG]" data-url="https://i.ibb.co/gD0Pv51/YUNGBLUD-Memories-ft-WILLOW-VTM.gif" style=""><br>
​</div>
<div class="ToggleTriggerAnchor bbCodeSpoilerContainer">
<button type="button" class="button bbCodeSpoilerButton ToggleTrigger Tooltip JsOnly" data-target="> .SpoilerTarget"><span>Spoiler: <span class="SpoilerTitle">ProRes</span></span></button>
<div class="SpoilerTarget bbCodeSpoilerText">
<div class="bbCodeBlock bbCodeCode">
<div class="type">Code:</div>
<pre>General
Complete name                            : YUNGBLUD - Memories ft. WILLOW.mov
Format                                   : MPEG-4
Format profile                           : QuickTime
Codec ID                                 : qt   2005.03 (qt  )
File size                                : 14.1 GiB
Duration                                 : 2 min 59 s
Overall bit rate mode                    : Variable
Overall bit rate                         : 675 Mb/s
Frame rate                               : 23.976 FPS
Encoded date                             : 2022-05-05 02:01:42 UTC
Tagged date                              : 2022-05-05 02:08:41 UTC
Writing library                          : Apple QuickTime
TIM                                      : 00:00:00:00
TSC                                      : 24000
TSZ                                      : 1001

Video
ID                                       : 1
Format                                   : ProRes
Format version                           : Version 0
Format profile                           : 422 HQ
Codec ID                                 : apch
Duration                                 : 2 min 59 s
Bit rate mode                            : Variable
Bit rate                                 : 672 Mb/s
Width                                    : 3 840 pixels
Height                                   : 2 160 pixels
Display aspect ratio                     : 16:9
Frame rate mode                          : Constant
Frame rate                               : 23.976 (24000/1001) FPS
Color space                              : YUV
Chroma subsampling                       : 4:2:2
Scan type                                : Progressive
Bits/(Pixel*Frame)                       : 3.382
Stream size                              : 14.0 GiB (100%)
Writing library                          : Apple
Language                                 : English
Encoded date                             : 2022-05-05 02:01:42 UTC
Tagged date                              : 2022-05-05 02:01:42 UTC
Color primaries                          : BT.709
Transfer characteristics                 : BT.709
Matrix coefficients                      : BT.709

Audio
ID                                       : 2
Format                                   : PCM
Format settings                          : Little / Signed
Codec ID                                 : in24
Duration                                 : 2 min 59 s
Bit rate mode                            : Constant
Bit rate                                 : 2 304 kb/s
Channel(s)                               : 2 channels
Channel layout                           : L R
Sampling rate                            : 48.0 kHz
Bit depth                                : 24 bits
Stream size                              : 49.2 MiB (0%)
Language                                 : English
Encoded date                             : 2022-05-05 02:01:42 UTC
Tagged date                              : 2022-05-05 02:01:42 UTC

Other
ID                                       : 3
Type                                     : Time code
Format                                   : QuickTime TC
Duration                                 : 2 min 59 s
Frame rate                               : 23.976 (24000/1001) FPS
Time code of first frame                 : 00:00:00:00
Time code of last frame                  : 00:02:59:00
Time code, stripped                      : Yes
Language                                 : English
Encoded date                             : 2022-05-05 02:01:42 UTC
Tagged date                              : 2022-05-05 02:01:42 UTC</pre>
</div><div style="text-align: center">​</div></div>
</div><div style="text-align: center"><br>
<div class="bbCodeBlock bbCodeVfcHH HiddenContent">
<div class="attribution type">Hidden Content:</div>
<blockquote>You must reply before you can see the hidden data contained here.</blockquote>
</div></div>
<div class="messageTextEndMarker">&nbsp;</div>
</blockquote>
</article>]]></description>
                <author><![CDATA[fstambuk]]></author>
                </item>

                </channel></rss>